<svg xmlns="http://www.w3.org/2000/svg" viewBox="0 0 760 180" role="img" aria-labelledby="title desc">
  <title id="title">Wayfinder logo</title>
  <desc id="desc">Wayfinder logo with icon and Course Progress Tracker subtitle.</desc>
  <defs>
    <linearGradient id="orange" x1="24" y1="140" x2="124" y2="20" gradientUnits="userSpaceOnUse">
      <stop offset="0" stop-color="#d96f16"/>
      <stop offset="0.55" stop-color="#f58220"/>
      <stop offset="1" stop-color="#ff9b3d"/>
    </linearGradient>
  </defs>
  <g transform="translate(20 20)" fill="url(#orange)">
    <path d="M70 0 85 49 70 40 55 49z"/>
    <path d="M70 47 83 63H57z"/>
    <path d="M16 59h20a34 34 0 0 1 25-30l-5-14A50 50 0 0 0 20 53z"/>
    <path d="M104 59h20l-4-6a50 50 0 0 0-36-38l-5 14a34 34 0 0 1 25 30z"/>
    <path d="M16 68h20a34 34 0 0 0 10 20l-21 21A50 50 0 0 1 20 73z"/>
    <path d="M104 68h20l-4 5a50 50 0 0 1-36 38l-5-14a34 34 0 0 0 25-29z"/>
    <path d="M70 69c-17 0-22 6-22 11 0 11 24 8 24 15 0 4-6 7-20 9 27 3 42-5 42-16 0-13-25-10-25-16 0-3 5-5 14-6-4-2-9-3-13-3z"/>
    <path d="M60 76c-18 11-28 28-28 43 12-16 28-29 53-36-6-2-15-4-25-7z"/>
  </g>
  <text x="180" y="88" fill="#1f2933" font-family="Inter, Segoe UI, Arial, sans-serif" font-size="72" font-weight="800" letter-spacing="-3">Wayfinder</text>
  <text x="185" y="128" fill="#5f6b76" font-family="Inter, Segoe UI, Arial, sans-serif" font-size="24" font-weight="700" letter-spacing="6">COURSE PROGRESS TRACKER</text>
</svg>
