<?xml version="1.0" encoding="UTF-8" standalone="no"?>
<svg
   viewBox="0 0 25519.725 24080.463"
   role="img"
   aria-labelledby="title desc"
   style="color:#ffffff"
   version="1.1"
   id="svg8"
   sodipodi:docname="Wayfinder_White.svg"
   xml:space="preserve"
   inkscape:version="1.4.2 (f4327f4, 2025-05-13)"
   width="25519.725"
   height="24080.463"
   inkscape:export-filename="Wayfinder_White.svg"
   inkscape:export-xdpi="96"
   inkscape:export-ydpi="96"
   xmlns:inkscape="http://www.inkscape.org/namespaces/inkscape"
   xmlns:sodipodi="http://sodipodi.sourceforge.net/DTD/sodipodi-0.dtd"
   xmlns="http://www.w3.org/2000/svg"
   xmlns:svg="http://www.w3.org/2000/svg"
   xmlns:rdf="http://www.w3.org/1999/02/22-rdf-syntax-ns#"
   xmlns:cc="http://creativecommons.org/ns#"
   xmlns:dc="http://purl.org/dc/elements/1.1/"><defs
     id="defs8" /><sodipodi:namedview
     id="namedview8"
     pagecolor="#ffffff"
     bordercolor="#000000"
     borderopacity="0.25"
     inkscape:showpageshadow="2"
     inkscape:pageopacity="0.0"
     inkscape:pagecheckerboard="0"
     inkscape:deskcolor="#d1d1d1"
     showguides="true"
     inkscape:zoom="0.04"
     inkscape:cx="10862.5"
     inkscape:cy="14412.5"
     inkscape:window-width="3440"
     inkscape:window-height="1369"
     inkscape:window-x="-8"
     inkscape:window-y="-8"
     inkscape:window-maximized="1"
     inkscape:current-layer="svg8"><inkscape:page
       x="0"
       y="0"
       width="25519.725"
       height="24080.463"
       id="page2"
       margin="0"
       bleed="0" /></sodipodi:namedview><title
     id="title1">Wayfinder icon</title><desc
     id="desc1">Compass and winding path icon for Wayfinder.</desc><style
     id="style1">
    :root { --wf-cutout: transparent; }
  </style><metadata
     id="metadata1"><rdf:RDF><cc:Work
         rdf:about=""><dc:title>Wayfinder icon</dc:title></cc:Work></rdf:RDF></metadata><g
     id="g1"
     style="fill:#f9f9f9;fill-opacity:1;stroke:none"><path
       style="fill:#f9f9f9;fill-opacity:1;stroke:none;stroke-width:5.59001;stroke-dasharray:none;stroke-opacity:1"
       d="m 13938.166,16720.068 -1068.212,-5305.595 -335.887,-2.545 -940.255,5306.241 c 777.255,118.07 1559.326,101.351 2344.354,1.862 z"
       id="path35"
       sodipodi:nodetypes="ccccc" /><path
       style="fill:#f9f9f9;fill-opacity:1;stroke:none;stroke-width:5.59001;stroke-dasharray:none;stroke-opacity:1"
       d="m 15270.945,12314.668 -486.632,-93.678 -790.548,-1902.842 -1294.682,1524.166 1.038,7.831 -1218.761,-1535.809 -740.626,1902.996 -479.701,106.069 1218.467,-3061.4527 1216.275,1870.2737 1296.228,-1850.949 z"
       id="path13"
       sodipodi:nodetypes="cccccccccccc" /><g
       id="g34"
       transform="matrix(-1957.7234,0,0,1957.7234,243308.99,-160478.87)"
       style="fill:#f9f9f9;fill-opacity:1;stroke:none;stroke-width:0.00285536;stroke-dasharray:none;stroke-opacity:1"><path
         style="fill:#f9f9f9;fill-opacity:1;stroke:none;stroke-width:0.00285536;stroke-dasharray:none;stroke-opacity:1"
         d="m 122.51482,87.656854 c -0.29941,-0.237441 -0.50573,-0.6552 -0.46426,-1.089991 -0.65058,-1.753597 -1.92624,-2.490864 -3.26998,-2.947014 0,0 -0.35659,1.291842 -0.29603,1.332212 1.07997,0.08117 2.16362,1.440038 2.2809,2.671152 z"
         id="path8"
         sodipodi:nodetypes="cccccc" /><path
         style="color:#ffffff;fill:#f9f9f9;fill-opacity:1;stroke:none;stroke-width:0.00285536;stroke-dasharray:none;stroke-opacity:1"
         d="m 113.00671,87.656854 c 0.29941,-0.237441 0.50573,-0.6552 0.46426,-1.089991 0.65058,-1.753597 1.92624,-2.490864 3.26998,-2.947014 0,0 0.35659,1.291842 0.29603,1.332212 -1.07997,0.08117 -2.16362,1.440038 -2.2809,2.671152 z"
         id="path8-9"
         sodipodi:nodetypes="cccccc" /></g><g
       id="g32"
       transform="matrix(-1957.7234,0,0,1957.7234,243308.99,-160478.87)"
       style="fill:#f9f9f9;fill-opacity:1;stroke:none;stroke-width:0.00285536;stroke-dasharray:none;stroke-opacity:1"><path
         style="color:#ffffff;fill:#f9f9f9;fill-opacity:1;stroke:none;stroke-width:0.00285536;stroke-dasharray:none;stroke-opacity:1"
         d="m 122.51482,88.554716 c -0.29941,0.237441 -0.50573,0.6552 -0.46426,1.089991 -0.65058,1.753597 -1.92624,2.490864 -3.26998,2.947014 0,0 -0.35659,-1.291842 -0.29603,-1.332212 1.07997,-0.08117 2.16362,-1.440038 2.2809,-2.671152 z"
         id="path8-5"
         sodipodi:nodetypes="cccccc" /><path
         style="color:#ffffff;fill:#f9f9f9;fill-opacity:1;stroke:none;stroke-width:0.00285536;stroke-dasharray:none;stroke-opacity:1"
         d="m 113.00671,88.554716 c 0.29941,0.237441 0.50573,0.6552 0.46426,1.089991 0.65058,1.753597 1.92624,2.490864 3.26998,2.947014 0,0 0.35659,-1.291842 0.29603,-1.332212 -1.07997,-0.08117 -2.16362,-1.440038 -2.2809,-2.671152 z"
         id="path8-9-1"
         sodipodi:nodetypes="cccccc" /></g><path
       style="color:#ffffff;fill:#f9f9f9;fill-opacity:1;stroke:none;stroke-width:5.58999;stroke-dasharray:none;stroke-opacity:1"
       d="m 7305.8118,12082.61 c 343.8811,272.708 580.8457,752.516 533.2162,1251.887 747.2101,2014.057 2212.343,2860.83 3755.667,3384.731 0,0 409.555,-1483.718 340,-1530.084 -1240.378,-93.226 -2484.9812,-1653.926 -2619.6807,-3067.896 z"
       id="path8-5-1"
       sodipodi:nodetypes="cccccc" /><path
       style="color:#ffffff;fill:#f9f9f9;fill-opacity:1;stroke:none;stroke-width:5.58999;stroke-dasharray:none;stroke-opacity:1"
       d="m 18226.154,12082.61 c -343.881,272.708 -580.846,752.516 -533.216,1251.887 -747.211,2014.057 -2212.343,2860.83 -3755.668,3384.731 0,0 -409.554,-1483.718 -339.999,-1530.084 1240.377,-93.226 2484.981,-1653.926 2619.68,-3067.896 z"
       id="path8-9-1-5"
       sodipodi:nodetypes="cccccc" /><path
       style="fill:#f9f9f9;fill-opacity:1;stroke:none;stroke-width:5.59001;stroke-dasharray:none;stroke-opacity:1"
       d="m 12700.141,3378.1927 -2436.877,7982.3743 2434.018,-1568.289 2571.431,1581.461 z"
       id="path9"
       sodipodi:nodetypes="ccccc" /></g></svg>
