<?xml version="1.0" encoding="UTF-8" standalone="no"?>
<!-- Created with Inkscape (http://www.inkscape.org/) -->

<svg
   width="210mm"
   height="297mm"
   viewBox="0 0 210 297"
   version="1.1"
   id="svg1"
   xml:space="preserve"
   inkscape:version="1.4.2 (f4327f4, 2025-05-13)"
   sodipodi:docname="Wayfinder_Dark.svg"
   xmlns:inkscape="http://www.inkscape.org/namespaces/inkscape"
   xmlns:sodipodi="http://sodipodi.sourceforge.net/DTD/sodipodi-0.dtd"
   xmlns="http://www.w3.org/2000/svg"
   xmlns:svg="http://www.w3.org/2000/svg"><sodipodi:namedview
     id="namedview1"
     pagecolor="#ffffff"
     bordercolor="#000000"
     borderopacity="0.25"
     inkscape:showpageshadow="2"
     inkscape:pageopacity="0.0"
     inkscape:pagecheckerboard="0"
     inkscape:deskcolor="#d1d1d1"
     inkscape:document-units="mm"
     inkscape:zoom="0.51981271"
     inkscape:cx="68.293828"
     inkscape:cy="836.83987"
     inkscape:window-width="1720"
     inkscape:window-height="1392"
     inkscape:window-x="0"
     inkscape:window-y="0"
     inkscape:window-maximized="0"
     inkscape:current-layer="layer1" /><defs
     id="defs1" /><g
     inkscape:label="Layer 1"
     inkscape:groupmode="layer"
     id="layer1"><path
       style="fill:#333333;stroke-width:3.2353"
       d="m 89.816537,208.77709 c -21.185826,-3.72431 -40.10184,-16.2653 -52.203886,-34.61036 -3.710263,-5.62422 -4.187905,-6.71377 -2.408064,-5.4929 13.379103,9.17723 24.691433,5.31947 39.256995,-13.38759 8.187204,-10.51507 11.678564,-13.78405 17.896642,-16.75647 14.044656,-6.71381 31.512746,-1.10489 36.373286,11.67934 0.30833,0.81092 0.30833,0.81092 -0.91536,0.2792 -23.03344,-10.00755 -36.001202,24.32354 -13.48156,35.69142 23.0466,11.63388 54.77682,-16.35909 56.14005,-49.52775 0.0708,-1.72386 0.0708,-1.72386 5.9487,-1.72386 6.55742,0 6.13379,-0.56961 5.12816,6.89547 -4.00484,29.72903 -26.17339,55.86615 -54.75427,64.55622 -24.54441,7.46279 -48.941373,-18.92805 -40.905073,-44.24813 0.375197,-1.18218 -0.360497,-0.57573 -1.557911,1.28422 -8.493005,13.19212 -4.298287,33.09267 9.219731,43.74045 3.465206,2.72941 3.206832,2.84146 -3.73744,1.62071 z m -46.143371,-43.9281 c -10.490164,-3.35755 -19.013789,-16.49876 -19.03447,-29.34623 -8.47e-4,-0.52598 0.499074,-0.57461 5.909493,-0.57461 5.910417,0 5.910417,0 5.911736,1.39551 0.0062,6.61575 4.203403,20.1789 8.484482,27.41776 0.560724,0.94814 0.912513,1.71594 0.781752,1.7062 -0.130778,-0.009 -1.054607,-0.2792 -2.052993,-0.59863 z m 12.595912,-17.80437 c 0.440638,-0.97529 4.122793,-8.718 8.182564,-17.20601 4.059784,-8.48802 10.487987,-21.93422 14.284926,-29.880457 9.168949,-19.188812 18.190441,-38.001197 21.808652,-45.477375 2.93987,-6.074587 2.93987,-6.074587 4.02017,-3.776104 1.02375,2.178289 4.86834,10.201589 18.25148,38.089358 16.81461,35.038198 28.53753,59.723468 28.42104,59.846888 -0.0919,0.097 -12.4154,-8.23407 -20.4184,-13.80366 -5.29531,-3.68522 -5.29531,-3.68522 -16.17123,-25.43885 -5.98175,-11.964497 -11.02361,-21.753618 -11.2041,-21.753618 -0.18053,0 -5.268874,9.863017 -11.30751,21.917808 -11.614446,23.1858 -11.812608,23.40014 -35.748089,38.66797 -0.920663,0.58726 -0.920663,0.58726 -0.119509,-1.18595 z m 34.280421,-20.54059 c 3.600872,-7.34875 12.758561,-25.3966 12.886561,-25.3966 0.21579,0 13.23201,25.63471 13.08419,25.76846 -0.0588,0.0531 -1.46856,-0.24911 -3.13296,-0.67168 -7.55763,-1.91882 -14.890464,-1.68578 -22.531763,0.71604 -0.495202,0.15562 -0.549811,0.0812 -0.306059,-0.41622 z m 19.734631,-4.62806 c -0.74887,-1.68494 -6.72041,-13.21443 -6.84467,-13.21524 -0.15627,-0.001 -6.563225,12.64007 -6.563225,12.94968 0,0.0773 2.105564,0.0638 4.679075,-0.0292 2.57349,-0.0938 5.49176,-0.0292 6.48505,0.14715 2.44863,0.43138 2.36701,0.42598 2.24377,0.14856 z m -85.512647,2.46266 c 3.369625,-36.701377 30.666996,-65.999184 66.774195,-71.667579 1.578168,-0.247823 1.858413,-1.144969 -2.790019,8.932708 -1.846709,4.00361 -1.846709,4.00361 -3.5123,4.395048 -25.16308,5.913663 -48.762582,34.533283 -48.783434,59.160733 -0.0013,1.55969 -0.0013,1.55969 -5.954164,1.55969 -5.952844,0 -5.952844,0 -5.734278,-2.3806 z m 145.829747,0.82091 c -3.62757,-28.945364 -21.35014,-51.000775 -47.094,-58.607594 -3.62528,-1.071206 -3.62528,-1.071206 -5.13007,-4.431542 -0.82762,-1.848162 -2.15361,-4.725695 -2.94664,-6.394492 -1.75612,-3.69548 -2.09324,-3.452963 3.34102,-2.403273 34.42928,6.650533 59.6379,34.984838 63.32795,71.180191 0.30477,2.99033 -11.12397,3.64307 -11.49826,0.65671 z"
       id="path1"
       inkscape:export-filename="icon48.png"
       inkscape:export-xdpi="7.6088834"
       inkscape:export-ydpi="7.6088834" /></g></svg>
